<svg xmlns="http://www.w3.org/2000/svg" viewBox="0 0 700 145" width="700">
  <defs>
    <marker id="arr" viewBox="0 0 10 6" refX="9" refY="3" markerWidth="7" markerHeight="5" orient="auto">
      <path d="M0,0 L10,3 L0,6z" fill="#14B8A6"/>
    </marker>
    <marker id="arr-m" viewBox="0 0 10 6" refX="9" refY="3" markerWidth="7" markerHeight="5" orient="auto">
      <path d="M0,0 L10,3 L0,6z" fill="#64748B"/>
    </marker>
  </defs>
  <rect width="700" height="145" rx="16" fill="#0D1117"/>
  <rect x="20" y="22" width="88" height="52" rx="10" fill="#161B22" stroke="#14B8A6" stroke-opacity="0.3" stroke-width="1.5"/>
  <text x="64" y="45" text-anchor="middle" fill="#E6EDF3" font-family="system-ui,sans-serif" font-size="12" font-weight="700">Tokens</text>
  <text x="64" y="62" text-anchor="middle" fill="#5EEAD4" font-family="system-ui,sans-serif" font-size="10">CSS Vars</text>
  <line x1="108" y1="48" x2="128" y2="48" stroke="#14B8A6" stroke-width="1.5" marker-end="url(#arr)"/>
  <rect x="130" y="22" width="88" height="52" rx="10" fill="#161B22" stroke="#14B8A6" stroke-opacity="0.3" stroke-width="1.5"/>
  <text x="174" y="45" text-anchor="middle" fill="#E6EDF3" font-family="system-ui,sans-serif" font-size="12" font-weight="700">Primitives</text>
  <text x="174" y="62" text-anchor="middle" fill="#5EEAD4" font-family="system-ui,sans-serif" font-size="12" font-weight="600">16</text>
  <line x1="218" y1="48" x2="238" y2="48" stroke="#14B8A6" stroke-width="1.5" marker-end="url(#arr)"/>
  <rect x="240" y="22" width="88" height="52" rx="10" fill="#161B22" stroke="#14B8A6" stroke-opacity="0.3" stroke-width="1.5"/>
  <text x="284" y="45" text-anchor="middle" fill="#E6EDF3" font-family="system-ui,sans-serif" font-size="12" font-weight="700">Patterns</text>
  <text x="284" y="62" text-anchor="middle" fill="#5EEAD4" font-family="system-ui,sans-serif" font-size="12" font-weight="600">70</text>
  <line x1="328" y1="48" x2="348" y2="48" stroke="#14B8A6" stroke-width="1.5" marker-end="url(#arr)"/>
  <rect x="350" y="22" width="88" height="52" rx="10" fill="#161B22" stroke="#14B8A6" stroke-opacity="0.3" stroke-width="1.5"/>
  <text x="394" y="45" text-anchor="middle" fill="#E6EDF3" font-family="system-ui,sans-serif" font-size="12" font-weight="700">Organisms</text>
  <text x="394" y="62" text-anchor="middle" fill="#5EEAD4" font-family="system-ui,sans-serif" font-size="12" font-weight="600">8</text>
  <line x1="438" y1="48" x2="458" y2="48" stroke="#14B8A6" stroke-width="1.5" marker-end="url(#arr)"/>
  <rect x="460" y="22" width="88" height="52" rx="10" fill="#161B22" stroke="#14B8A6" stroke-opacity="0.3" stroke-width="1.5"/>
  <text x="504" y="45" text-anchor="middle" fill="#E6EDF3" font-family="system-ui,sans-serif" font-size="12" font-weight="700">Layouts</text>
  <text x="504" y="62" text-anchor="middle" fill="#5EEAD4" font-family="system-ui,sans-serif" font-size="12" font-weight="600">6</text>
  <line x1="548" y1="48" x2="568" y2="48" stroke="#14B8A6" stroke-width="1.5" marker-end="url(#arr)"/>
  <rect x="570" y="22" width="88" height="52" rx="10" fill="#161B22" stroke="#14B8A6" stroke-opacity="0.4" stroke-width="1.5"/>
  <text x="614" y="45" text-anchor="middle" fill="#E6EDF3" font-family="system-ui,sans-serif" font-size="12" font-weight="700">Pages</text>
  <text x="614" y="62" text-anchor="middle" fill="#5EEAD4" font-family="system-ui,sans-serif" font-size="12" font-weight="600">56</text>
  <path d="M614,74 L614,105 L64,105 L64,74" fill="none" stroke="#64748B" stroke-width="1" stroke-dasharray="4,3" marker-end="url(#arr-m)"/>
  <text x="339" y="120" text-anchor="middle" fill="#64748B" font-family="system-ui,sans-serif" font-size="10" font-weight="500">Shared Utils</text>
</svg>