<svg xmlns="http://www.w3.org/2000/svg" viewBox="0 0 700 620" fill="none">

  <!-- Background -->
  <rect width="700" height="620" rx="12" fill="#0d1117" />

  <!-- ═══ CLIENT (Browser) ═══ -->
  <rect x="20" y="15" width="660" height="230" rx="10" fill="none" stroke="#1e293b" stroke-width="1" />
  <text x="350" y="38" text-anchor="middle" fill="#64748b" font-family="Segoe UI, system-ui, sans-serif" font-size="11" font-weight="600" letter-spacing="2">CLIENT (BROWSER)</text>

  <!-- Tech boxes row -->
  <rect x="40" y="52" width="145" height="44" rx="6" fill="#1a1a2e" stroke="#14b8a6" stroke-width="1.2" />
  <text x="112" y="71" text-anchor="middle" fill="#5eead4" font-family="Segoe UI, system-ui, sans-serif" font-size="10" font-weight="700">Next.js</text>
  <text x="112" y="86" text-anchor="middle" fill="#64748b" font-family="Segoe UI, system-ui, sans-serif" font-size="9">App Router</text>

  <rect x="195" y="52" width="145" height="44" rx="6" fill="#1a1a2e" stroke="#14b8a6" stroke-width="1.2" />
  <text x="267" y="71" text-anchor="middle" fill="#5eead4" font-family="Segoe UI, system-ui, sans-serif" font-size="10" font-weight="700">React 19</text>
  <text x="267" y="86" text-anchor="middle" fill="#64748b" font-family="Segoe UI, system-ui, sans-serif" font-size="9">Components</text>

  <rect x="350" y="52" width="145" height="44" rx="6" fill="#1a1a2e" stroke="#14b8a6" stroke-width="1.2" />
  <text x="422" y="71" text-anchor="middle" fill="#5eead4" font-family="Segoe UI, system-ui, sans-serif" font-size="10" font-weight="700">Tailwind</text>
  <text x="422" y="86" text-anchor="middle" fill="#64748b" font-family="Segoe UI, system-ui, sans-serif" font-size="9">CSS 4</text>

  <rect x="505" y="52" width="145" height="44" rx="6" fill="#1a1a2e" stroke="#14b8a6" stroke-width="1.2" />
  <text x="577" y="71" text-anchor="middle" fill="#5eead4" font-family="Segoe UI, system-ui, sans-serif" font-size="10" font-weight="700">i18n</text>
  <text x="577" y="86" text-anchor="middle" fill="#64748b" font-family="Segoe UI, system-ui, sans-serif" font-size="9">next-intl</text>

  <!-- Arrows down to Design System -->
  <path d="M112,96 L112,110" stroke="#14b8a6" stroke-width="1" fill="none" />
  <path d="M267,96 L267,110" stroke="#14b8a6" stroke-width="1" fill="none" />
  <path d="M422,96 L422,110" stroke="#14b8a6" stroke-width="1" fill="none" />
  <path d="M577,96 L577,110" stroke="#14b8a6" stroke-width="1" fill="none" />
  <path d="M112,110 L577,110" stroke="#14b8a6" stroke-width="1" fill="none" />
  <path d="M350,110 L350,118" stroke="#14b8a6" stroke-width="1" fill="none" />
  <polygon fill="#14b8a6" points="350,120 346,114 354,114" />

  <!-- PULSE DESIGN SYSTEM box -->
  <rect x="40" y="122" width="620" height="115" rx="8" fill="#111827" stroke="#14b8a6" stroke-width="1.5" />
  <text x="350" y="143" text-anchor="middle" fill="#5eead4" font-family="Segoe UI, system-ui, sans-serif" font-size="12" font-weight="700" letter-spacing="1">PULSE DESIGN SYSTEM (core/)</text>

  <!-- Component boxes inside DS -->
  <rect x="60" y="155" width="130" height="36" rx="5" fill="#1a1a2e" stroke="#0d9488" stroke-width="1" />
  <text x="125" y="170" text-anchor="middle" fill="#99f6e4" font-family="Segoe UI, system-ui, sans-serif" font-size="10" font-weight="700">Primitives</text>
  <text x="125" y="183" text-anchor="middle" fill="#64748b" font-family="Segoe UI, system-ui, sans-serif" font-size="9">(17)</text>

  <rect x="200" y="155" width="130" height="36" rx="5" fill="#1a1a2e" stroke="#0d9488" stroke-width="1" />
  <text x="265" y="170" text-anchor="middle" fill="#99f6e4" font-family="Segoe UI, system-ui, sans-serif" font-size="10" font-weight="700">Patterns</text>
  <text x="265" y="183" text-anchor="middle" fill="#64748b" font-family="Segoe UI, system-ui, sans-serif" font-size="9">(71)</text>

  <rect x="340" y="155" width="130" height="36" rx="5" fill="#1a1a2e" stroke="#0d9488" stroke-width="1" />
  <text x="405" y="170" text-anchor="middle" fill="#99f6e4" font-family="Segoe UI, system-ui, sans-serif" font-size="10" font-weight="700">Organisms</text>
  <text x="405" y="183" text-anchor="middle" fill="#64748b" font-family="Segoe UI, system-ui, sans-serif" font-size="9">(9)</text>

  <rect x="480" y="155" width="130" height="36" rx="5" fill="#1a1a2e" stroke="#0d9488" stroke-width="1" />
  <text x="545" y="170" text-anchor="middle" fill="#99f6e4" font-family="Segoe UI, system-ui, sans-serif" font-size="10" font-weight="700">Layouts</text>
  <text x="545" y="183" text-anchor="middle" fill="#64748b" font-family="Segoe UI, system-ui, sans-serif" font-size="9">(7)</text>

  <!-- Tokens + Shared Utils row -->
  <rect x="60" y="198" width="130" height="30" rx="5" fill="#1a1a2e" stroke="#0d9488" stroke-width="1" />
  <text x="125" y="217" text-anchor="middle" fill="#99f6e4" font-family="Segoe UI, system-ui, sans-serif" font-size="10" font-weight="600">Tokens</text>

  <rect x="200" y="198" width="410" height="30" rx="5" fill="#1a1a2e" stroke="#0d9488" stroke-width="1" />
  <text x="405" y="217" text-anchor="middle" fill="#99f6e4" font-family="Segoe UI, system-ui, sans-serif" font-size="10" font-weight="600">Shared Utils (cn, formatters)</text>

  <!-- ═══ Arrow from CLIENT to SERVER ═══ -->
  <path d="M350,245 L350,270" stroke="#14b8a6" stroke-width="1.5" fill="none" />
  <polygon fill="#14b8a6" points="350,272 346,266 354,266" />

  <!-- ═══ SERVER (Next.js) ═══ -->
  <rect x="20" y="278" width="660" height="180" rx="10" fill="none" stroke="#1e293b" stroke-width="1" />
  <text x="350" y="298" text-anchor="middle" fill="#64748b" font-family="Segoe UI, system-ui, sans-serif" font-size="11" font-weight="600" letter-spacing="2">SERVER (NEXT.JS)</text>

  <!-- Server boxes row -->
  <rect x="40" y="310" width="200" height="44" rx="6" fill="#1a1a2e" stroke="#6366f1" stroke-width="1.2" />
  <text x="140" y="329" text-anchor="middle" fill="#a5b4fc" font-family="Segoe UI, system-ui, sans-serif" font-size="10" font-weight="700">App Router</text>
  <text x="140" y="344" text-anchor="middle" fill="#64748b" font-family="Segoe UI, system-ui, sans-serif" font-size="9">(SSR/SSG)</text>

  <rect x="250" y="310" width="200" height="44" rx="6" fill="#1a1a2e" stroke="#6366f1" stroke-width="1.2" />
  <text x="350" y="329" text-anchor="middle" fill="#a5b4fc" font-family="Segoe UI, system-ui, sans-serif" font-size="10" font-weight="700">API Routes</text>
  <text x="350" y="344" text-anchor="middle" fill="#64748b" font-family="Segoe UI, system-ui, sans-serif" font-size="9">(future)</text>

  <rect x="460" y="310" width="200" height="44" rx="6" fill="#1a1a2e" stroke="#6366f1" stroke-width="1.2" />
  <text x="560" y="329" text-anchor="middle" fill="#a5b4fc" font-family="Segoe UI, system-ui, sans-serif" font-size="10" font-weight="700">Middleware</text>
  <text x="560" y="344" text-anchor="middle" fill="#64748b" font-family="Segoe UI, system-ui, sans-serif" font-size="9">(i18n, auth)</text>

  <!-- Arrows to Service Layer -->
  <path d="M140,354 L140,370" stroke="#6366f1" stroke-width="1" fill="none" />
  <path d="M350,354 L350,370" stroke="#6366f1" stroke-width="1" fill="none" />
  <path d="M140,370 L350,370" stroke="#6366f1" stroke-width="1" fill="none" />
  <path d="M245,370 L245,378" stroke="#6366f1" stroke-width="1" fill="none" />
  <polygon fill="#6366f1" points="245,380 241,374 249,374" />

  <!-- SERVICE LAYER box -->
  <rect x="40" y="382" width="620" height="68" rx="8" fill="#111827" stroke="#6366f1" stroke-width="1.5" />
  <text x="350" y="400" text-anchor="middle" fill="#a5b4fc" font-family="Segoe UI, system-ui, sans-serif" font-size="11" font-weight="700" letter-spacing="1">SERVICE LAYER (future)</text>

  <!-- Service boxes -->
  <rect x="60" y="410" width="140" height="30" rx="5" fill="#1a1a2e" stroke="#818cf8" stroke-width="1" />
  <text x="130" y="429" text-anchor="middle" fill="#c7d2fe" font-family="Segoe UI, system-ui, sans-serif" font-size="9" font-weight="600">Auth Service</text>

  <rect x="210" y="410" width="140" height="30" rx="5" fill="#1a1a2e" stroke="#818cf8" stroke-width="1" />
  <text x="280" y="429" text-anchor="middle" fill="#c7d2fe" font-family="Segoe UI, system-ui, sans-serif" font-size="9" font-weight="600">Analytics Service</text>

  <rect x="360" y="410" width="140" height="30" rx="5" fill="#1a1a2e" stroke="#818cf8" stroke-width="1" />
  <text x="430" y="429" text-anchor="middle" fill="#c7d2fe" font-family="Segoe UI, system-ui, sans-serif" font-size="9" font-weight="600">Users Service</text>

  <rect x="510" y="410" width="140" height="30" rx="5" fill="#1a1a2e" stroke="#818cf8" stroke-width="1" />
  <text x="580" y="429" text-anchor="middle" fill="#c7d2fe" font-family="Segoe UI, system-ui, sans-serif" font-size="9" font-weight="600">Billing Service</text>

  <!-- ═══ Arrow from SERVER to DATA ═══ -->
  <path d="M350,458 L350,485" stroke="#06b6d4" stroke-width="1.5" fill="none" />
  <polygon fill="#06b6d4" points="350,487 346,481 354,481" />

  <!-- ═══ DATA LAYER ═══ -->
  <rect x="20" y="492" width="660" height="115" rx="10" fill="none" stroke="#1e293b" stroke-width="1" />
  <text x="350" y="512" text-anchor="middle" fill="#64748b" font-family="Segoe UI, system-ui, sans-serif" font-size="11" font-weight="600" letter-spacing="2">DATA LAYER (FUTURE)</text>

  <!-- Data boxes row 1 -->
  <rect x="40" y="524" width="130" height="36" rx="6" fill="#1a1a2e" stroke="#06b6d4" stroke-width="1.2" />
  <text x="105" y="539" text-anchor="middle" fill="#67e8f9" font-family="Segoe UI, system-ui, sans-serif" font-size="10" font-weight="700">PostgreSQL</text>
  <text x="105" y="552" text-anchor="middle" fill="#64748b" font-family="Segoe UI, system-ui, sans-serif" font-size="9">(Prisma)</text>

  <rect x="180" y="524" width="130" height="36" rx="6" fill="#1a1a2e" stroke="#06b6d4" stroke-width="1.2" />
  <text x="245" y="539" text-anchor="middle" fill="#67e8f9" font-family="Segoe UI, system-ui, sans-serif" font-size="10" font-weight="700">Redis</text>
  <text x="245" y="552" text-anchor="middle" fill="#64748b" font-family="Segoe UI, system-ui, sans-serif" font-size="9">(Cache)</text>

  <rect x="320" y="524" width="130" height="36" rx="6" fill="#1a1a2e" stroke="#06b6d4" stroke-width="1.2" />
  <text x="385" y="539" text-anchor="middle" fill="#67e8f9" font-family="Segoe UI, system-ui, sans-serif" font-size="10" font-weight="700">BullMQ</text>
  <text x="385" y="552" text-anchor="middle" fill="#64748b" font-family="Segoe UI, system-ui, sans-serif" font-size="9">(Job Queue)</text>

  <!-- Data boxes row 2 -->
  <rect x="460" y="524" width="100" height="36" rx="6" fill="#1a1a2e" stroke="#06b6d4" stroke-width="1.2" />
  <text x="510" y="539" text-anchor="middle" fill="#67e8f9" font-family="Segoe UI, system-ui, sans-serif" font-size="10" font-weight="700">S3</text>
  <text x="510" y="552" text-anchor="middle" fill="#64748b" font-family="Segoe UI, system-ui, sans-serif" font-size="9">(Storage)</text>

  <rect x="570" y="524" width="100" height="36" rx="6" fill="#1a1a2e" stroke="#06b6d4" stroke-width="1.2" />
  <text x="620" y="539" text-anchor="middle" fill="#67e8f9" font-family="Segoe UI, system-ui, sans-serif" font-size="10" font-weight="700">CDN/Edge</text>
  <text x="620" y="552" text-anchor="middle" fill="#64748b" font-family="Segoe UI, system-ui, sans-serif" font-size="9">(Assets)</text>

  <!-- Title -->
  <text x="350" y="600" text-anchor="middle" fill="#475569" font-family="Segoe UI, system-ui, sans-serif" font-size="10" font-weight="500" letter-spacing="1">PULSE SYSTEM ARCHITECTURE</text>

</svg>
